<mxfile host="app.diagrams.net" agent="Mozilla/5.0 (Windows NT 10.0; Win64; x64) AppleWebKit/537.36 (KHTML, like Gecko) Chrome/130.0.0.0 Safari/537.36" version="24.7.17">
  <diagram name="Page-1" id="IXOKbG2SnRXw-Xi9nNdt">
    <mxGraphModel dx="1221" dy="759" grid="1" gridSize="10" guides="1" tooltips="1" connect="1" arrows="1" fold="1" page="1" pageScale="1" pageWidth="850" pageHeight="1100" math="0" shadow="0">
      <root>
        <mxCell id="0" />
        <mxCell id="1" parent="0" />
        <mxCell id="XRk1uHyUOkDo9Auu9qXP-6" value="" style="rounded=0;whiteSpace=wrap;html=1;rotation=-90;" vertex="1" parent="1">
          <mxGeometry x="493.75" y="266.25" width="165" height="42.5" as="geometry" />
        </mxCell>
        <mxCell id="XRk1uHyUOkDo9Auu9qXP-2" value="" style="whiteSpace=wrap;html=1;aspect=fixed;" vertex="1" parent="1">
          <mxGeometry x="250" y="216.25" width="50" height="50" as="geometry" />
        </mxCell>
        <mxCell id="XRk1uHyUOkDo9Auu9qXP-27" style="edgeStyle=orthogonalEdgeStyle;rounded=0;orthogonalLoop=1;jettySize=auto;html=1;" edge="1" parent="1" source="XRk1uHyUOkDo9Auu9qXP-4" target="XRk1uHyUOkDo9Auu9qXP-6">
          <mxGeometry relative="1" as="geometry">
            <Array as="points" />
          </mxGeometry>
        </mxCell>
        <mxCell id="XRk1uHyUOkDo9Auu9qXP-4" value="" style="rounded=0;whiteSpace=wrap;html=1;rotation=-90;" vertex="1" parent="1">
          <mxGeometry x="357.82" y="269.7" width="171.88" height="42.5" as="geometry" />
        </mxCell>
        <mxCell id="XRk1uHyUOkDo9Auu9qXP-8" value="" style="endArrow=none;dashed=1;html=1;rounded=0;" edge="1" parent="1" source="XRk1uHyUOkDo9Auu9qXP-11">
          <mxGeometry width="50" height="50" relative="1" as="geometry">
            <mxPoint x="440" y="620" as="sourcePoint" />
            <mxPoint x="440" y="90" as="targetPoint" />
          </mxGeometry>
        </mxCell>
        <mxCell id="XRk1uHyUOkDo9Auu9qXP-35" style="edgeStyle=orthogonalEdgeStyle;rounded=0;orthogonalLoop=1;jettySize=auto;html=1;strokeColor=none;" edge="1" parent="1" source="XRk1uHyUOkDo9Auu9qXP-7">
          <mxGeometry relative="1" as="geometry">
            <mxPoint x="160" y="431.25" as="targetPoint" />
          </mxGeometry>
        </mxCell>
        <mxCell id="XRk1uHyUOkDo9Auu9qXP-37" style="edgeStyle=orthogonalEdgeStyle;rounded=0;orthogonalLoop=1;jettySize=auto;html=1;dashed=1;" edge="1" parent="1" source="XRk1uHyUOkDo9Auu9qXP-7">
          <mxGeometry relative="1" as="geometry">
            <mxPoint x="160" y="431.25" as="targetPoint" />
          </mxGeometry>
        </mxCell>
        <mxCell id="XRk1uHyUOkDo9Auu9qXP-7" value="" style="rounded=0;whiteSpace=wrap;html=1;rotation=-90;" vertex="1" parent="1">
          <mxGeometry x="637.5" y="410" width="165" height="42.5" as="geometry" />
        </mxCell>
        <mxCell id="XRk1uHyUOkDo9Auu9qXP-9" value="Press Button" style="shape=umlLifeline;perimeter=lifelinePerimeter;whiteSpace=wrap;html=1;container=1;dropTarget=0;collapsible=0;recursiveResize=0;outlineConnect=0;portConstraint=eastwest;newEdgeStyle={&quot;curved&quot;:0,&quot;rounded&quot;:0};" vertex="1" parent="1">
          <mxGeometry x="230" y="100" width="100" height="500" as="geometry" />
        </mxCell>
        <mxCell id="XRk1uHyUOkDo9Auu9qXP-10" value="Pedestrian_Light" style="shape=umlLifeline;perimeter=lifelinePerimeter;whiteSpace=wrap;html=1;container=1;dropTarget=0;collapsible=0;recursiveResize=0;outlineConnect=0;portConstraint=eastwest;newEdgeStyle={&quot;curved&quot;:0,&quot;rounded&quot;:0};" vertex="1" parent="1">
          <mxGeometry x="670" y="100" width="100" height="500" as="geometry" />
        </mxCell>
        <mxCell id="XRk1uHyUOkDo9Auu9qXP-12" value="Traffic_light" style="shape=umlLifeline;perimeter=lifelinePerimeter;whiteSpace=wrap;html=1;container=1;dropTarget=0;collapsible=0;recursiveResize=0;outlineConnect=0;portConstraint=eastwest;newEdgeStyle={&quot;curved&quot;:0,&quot;rounded&quot;:0};" vertex="1" parent="1">
          <mxGeometry x="526.25" y="100" width="100" height="500" as="geometry" />
        </mxCell>
        <mxCell id="XRk1uHyUOkDo9Auu9qXP-11" value="Arduino" style="shape=umlLifeline;perimeter=lifelinePerimeter;whiteSpace=wrap;html=1;container=1;dropTarget=0;collapsible=0;recursiveResize=0;outlineConnect=0;portConstraint=eastwest;newEdgeStyle={&quot;curved&quot;:0,&quot;rounded&quot;:0};" vertex="1" parent="1">
          <mxGeometry x="393.75" y="100" width="100" height="500" as="geometry" />
        </mxCell>
        <mxCell id="XRk1uHyUOkDo9Auu9qXP-16" style="edgeStyle=orthogonalEdgeStyle;rounded=0;orthogonalLoop=1;jettySize=auto;html=1;curved=0;" edge="1" parent="1" source="XRk1uHyUOkDo9Auu9qXP-14" target="XRk1uHyUOkDo9Auu9qXP-2">
          <mxGeometry relative="1" as="geometry">
            <Array as="points">
              <mxPoint x="170" y="241" />
              <mxPoint x="170" y="241" />
            </Array>
          </mxGeometry>
        </mxCell>
        <mxCell id="XRk1uHyUOkDo9Auu9qXP-14" value="" style="shape=umlLifeline;perimeter=lifelinePerimeter;whiteSpace=wrap;html=1;container=1;dropTarget=0;collapsible=0;recursiveResize=0;outlineConnect=0;portConstraint=eastwest;newEdgeStyle={&quot;curved&quot;:0,&quot;rounded&quot;:0};participant=umlActor;" vertex="1" parent="1">
          <mxGeometry x="120" y="110" width="30" height="490" as="geometry" />
        </mxCell>
        <mxCell id="XRk1uHyUOkDo9Auu9qXP-19" style="edgeStyle=orthogonalEdgeStyle;rounded=0;orthogonalLoop=1;jettySize=auto;html=1;entryX=0.79;entryY=0.09;entryDx=0;entryDy=0;entryPerimeter=0;" edge="1" parent="1" source="XRk1uHyUOkDo9Auu9qXP-2" target="XRk1uHyUOkDo9Auu9qXP-4">
          <mxGeometry relative="1" as="geometry" />
        </mxCell>
        <mxCell id="XRk1uHyUOkDo9Auu9qXP-21" value="" style="whiteSpace=wrap;html=1;aspect=fixed;" vertex="1" parent="1">
          <mxGeometry x="120" y="226.25" width="30" height="30" as="geometry" />
        </mxCell>
        <mxCell id="XRk1uHyUOkDo9Auu9qXP-23" value="&lt;span style=&quot;font-weight: normal;&quot;&gt;&lt;font style=&quot;font-size: 11px;&quot;&gt;Press Button&lt;/font&gt;&lt;/span&gt;" style="text;strokeColor=none;fillColor=none;html=1;fontSize=24;fontStyle=1;verticalAlign=middle;align=center;" vertex="1" parent="1">
          <mxGeometry x="170" y="216.25" width="70" height="10" as="geometry" />
        </mxCell>
        <mxCell id="XRk1uHyUOkDo9Auu9qXP-26" value="&lt;span style=&quot;font-weight: normal;&quot;&gt;&lt;font style=&quot;font-size: 11px;&quot;&gt;Press Button = High&lt;/font&gt;&lt;/span&gt;" style="text;strokeColor=none;fillColor=none;html=1;fontSize=24;fontStyle=1;verticalAlign=middle;align=center;" vertex="1" parent="1">
          <mxGeometry x="330" y="216.25" width="70" height="10" as="geometry" />
        </mxCell>
        <mxCell id="XRk1uHyUOkDo9Auu9qXP-28" value="Interruption()" style="text;whiteSpace=wrap;html=1;" vertex="1" parent="1">
          <mxGeometry x="480" y="256.25" width="100" height="40" as="geometry" />
        </mxCell>
        <mxCell id="XRk1uHyUOkDo9Auu9qXP-29" value="redON()" style="text;whiteSpace=wrap;html=1;" vertex="1" parent="1">
          <mxGeometry x="480" y="320" width="80" height="40" as="geometry" />
        </mxCell>
        <mxCell id="XRk1uHyUOkDo9Auu9qXP-30" style="edgeStyle=orthogonalEdgeStyle;rounded=0;orthogonalLoop=1;jettySize=auto;html=1;entryX=0.135;entryY=-0.047;entryDx=0;entryDy=0;entryPerimeter=0;" edge="1" parent="1" target="XRk1uHyUOkDo9Auu9qXP-6">
          <mxGeometry relative="1" as="geometry">
            <mxPoint x="470" y="350" as="sourcePoint" />
            <Array as="points" />
          </mxGeometry>
        </mxCell>
        <mxCell id="XRk1uHyUOkDo9Auu9qXP-32" style="edgeStyle=orthogonalEdgeStyle;rounded=0;orthogonalLoop=1;jettySize=auto;html=1;entryX=1;entryY=0;entryDx=0;entryDy=0;" edge="1" parent="1" source="XRk1uHyUOkDo9Auu9qXP-4" target="XRk1uHyUOkDo9Auu9qXP-33">
          <mxGeometry relative="1" as="geometry">
            <mxPoint x="690" y="400" as="targetPoint" />
            <Array as="points">
              <mxPoint x="444" y="390" />
            </Array>
          </mxGeometry>
        </mxCell>
        <mxCell id="XRk1uHyUOkDo9Auu9qXP-33" value="pedestrianLight()" style="text;whiteSpace=wrap;html=1;" vertex="1" parent="1">
          <mxGeometry x="580" y="390" width="120" height="40" as="geometry" />
        </mxCell>
        <mxCell id="XRk1uHyUOkDo9Auu9qXP-34" value="" style="rounded=1;whiteSpace=wrap;html=1;rotation=90;" vertex="1" parent="1">
          <mxGeometry x="92.5" y="410" width="85" height="30" as="geometry" />
        </mxCell>
        <mxCell id="XRk1uHyUOkDo9Auu9qXP-38" value="greenON()" style="text;whiteSpace=wrap;html=1;" vertex="1" parent="1">
          <mxGeometry x="385" y="405" width="80" height="40" as="geometry" />
        </mxCell>
        <mxCell id="XRk1uHyUOkDo9Auu9qXP-39" value="" style="rounded=0;whiteSpace=wrap;html=1;rotation=90;" vertex="1" parent="1">
          <mxGeometry x="546.25" y="480" width="60" height="30" as="geometry" />
        </mxCell>
        <mxCell id="XRk1uHyUOkDo9Auu9qXP-43" style="edgeStyle=orthogonalEdgeStyle;rounded=0;orthogonalLoop=1;jettySize=auto;html=1;entryX=0.5;entryY=0;entryDx=0;entryDy=0;" edge="1" parent="1" source="XRk1uHyUOkDo9Auu9qXP-40" target="XRk1uHyUOkDo9Auu9qXP-41">
          <mxGeometry relative="1" as="geometry" />
        </mxCell>
        <mxCell id="XRk1uHyUOkDo9Auu9qXP-44" style="edgeStyle=orthogonalEdgeStyle;rounded=0;orthogonalLoop=1;jettySize=auto;html=1;entryX=0.5;entryY=1;entryDx=0;entryDy=0;" edge="1" parent="1" source="XRk1uHyUOkDo9Auu9qXP-40" target="XRk1uHyUOkDo9Auu9qXP-39">
          <mxGeometry relative="1" as="geometry" />
        </mxCell>
        <mxCell id="XRk1uHyUOkDo9Auu9qXP-40" value="" style="rounded=0;whiteSpace=wrap;html=1;rotation=90;" vertex="1" parent="1">
          <mxGeometry x="413.75" y="480" width="60" height="30" as="geometry" />
        </mxCell>
        <mxCell id="XRk1uHyUOkDo9Auu9qXP-41" value="" style="rounded=0;whiteSpace=wrap;html=1;rotation=90;" vertex="1" parent="1">
          <mxGeometry x="250" y="480" width="60" height="30" as="geometry" />
        </mxCell>
        <mxCell id="XRk1uHyUOkDo9Auu9qXP-42" value="&lt;span style=&quot;font-weight: normal;&quot;&gt;&lt;font style=&quot;font-size: 11px;&quot;&gt;Press Button = Low&lt;/font&gt;&lt;/span&gt;" style="text;strokeColor=none;fillColor=none;html=1;fontSize=24;fontStyle=1;verticalAlign=middle;align=center;" vertex="1" parent="1">
          <mxGeometry x="323.75" y="452.5" width="70" height="100" as="geometry" />
        </mxCell>
        <mxCell id="XRk1uHyUOkDo9Auu9qXP-45" value="TrafficLight()" style="text;whiteSpace=wrap;html=1;" vertex="1" parent="1">
          <mxGeometry x="473.75" y="470" width="100" height="40" as="geometry" />
        </mxCell>
        <mxCell id="XRk1uHyUOkDo9Auu9qXP-46" value="The diagram illustrates the interaction between a pedestrian, button, Arduino controller, traffic lights, and pedestrian lights in a pedestrian-controlled traffic light system. The button signals the Arduino, which activates the pedestrian green light. After crossing, the Arduino resumes normal operation, ensuring safe pedestrian crossing and seamless traffic management." style="text;whiteSpace=wrap;html=1;" vertex="1" parent="1">
          <mxGeometry x="150" y="640" width="560" height="80" as="geometry" />
        </mxCell>
      </root>
    </mxGraphModel>
  </diagram>
</mxfile>
